<?xml version="1.0" encoding="UTF-8"?>
<svg version="1.1" viewBox="0 0 2048 482" width="938" height="221" xmlns="http://www.w3.org/2000/svg">
<path transform="translate(0)" d="m0 0h2048v482h-2048z" fill="#5C6073"/>
<path transform="translate(228,154)" d="m0 0h18l15 3 16 7 13 9 9 8 9 13 8 15 4 17v22l-5 19-8 16-6 8-21 21-1 2h-2l-2 5-5 9-3 12h-10v-38l20-20 5 2 8-1 5-2 5-6 1-2v-10l-4-8-7-4h-10l-6 4-4 5-1 4v13l-19 19-1 2-1 42h-7v-91l7-7 8-10 6-6 14-1 6-3 4-6 1-4v-8l-4-6-8-5h-10l-6 4-4 6v17l-11 12-10 11-2 5-1 92h-9l-1-68-6-9-16-16v-13l-3-6-1-3-5-2-1-1h-10l-7 3-5 7v13l3 4v2l5 2 1 1h15l8 7 12 12v67h-5l-5-16-7-10-4-5-8-7-12-12-8-13-6-14-3-13v-24l2-11 7-17 9-14 11-11 15-10 14-6 8-2z" fill="#5C6073"/>
<path transform="translate(227,144)" d="m0 0h20l18 4 18 8 13 9 9 8 10 13 8 15 4 12 3 15v18l-3 17-6 16-7 12-11 13-19 19-6 12-1 5-1 28-3 7-5 4h-65l-5-6-2-8-1-28-4-9-6-9-19-19-8-10-9-17-5-17-1-9v-22l6-23 7-14 8-10 10-11 12-9 15-8 18-5zm1 10-13 2-16 6-14 9-10 9-6 7-9 15-6 17-1 7v24l4 16 8 16 6 9 22 22 7 9 4 10 2 8h5v-67l-18-18-6-1h-11l-4-3h-2l-2-5-1-1v-13l5-7 7-3h10l4 3h2l2 4 2 5v13l18 18 4 7 1 68h9l1-92 3-6 12-13 8-9v-17l5-7 5-3h10l8 5 4 6v8l-3 8-3 3-5 2-14 1-9 9-8 10-4 4v91h7l1-42 7-8 13-13v-13l3-7 6-5 2-1h10l7 4 4 8v10l-4 6-3 3-7 2-7-1-3-1-20 20v38h10l4-14 6-10v-2h2l7-8 18-18 8-14 5-13 3-13v-22l-4-17-9-17-10-13-12-10-14-8-14-5-11-2z" fill="#CED0D3"/>
<path transform="translate(534,124)" d="m0 0h55l9 3 7 5 5 8 3 10v44l-2 11-5 10-6 5-12 5h-51l-7-4-2-3v-89z" fill="#FBFCFC"/>
<path transform="translate(774,124)" d="m0 0h19l6 7 13 23 14 25 11 19 1 1 1-74 1-1h16l1 1v91l-5 9h-18l-5-2v-2h-2l-10-17-12-22-10-17-6-11-4-7-1 77-1 1h-15l-2-4v-84l2-9 3-3z" fill="#FBFCFC"/>
<path transform="translate(1708,124)" d="m0 0h19l5 3 10 17 14 25 9 16 8 13 1 4 1-76 1-2h17v92l-3 6-5 3h-17l-6-5-6-10-6-11-12-21-6-12-6-9-4-9-2-1v78h-16l-2-2v-90l4-7h2z" fill="#FBFCFC"/>
<path transform="translate(265,192)" d="m0 0h10l8 5 4 5 1 2v8l-3 8-4 4-5 2-14 1-8 8-8 10-4 4-1 91h7v-42l7-8 13-13v-13l3-7 7-6 2-1h10l7 4 4 6 1 3v10l-4 6-4 4-7 2-7-1-3-1-19 19-1 38h10l1-8 4-10 5-8h2l-2 10h5l-2 6-3 10-1 28-3 7-5 4h-50l2-3 1-5-2-1 45-1 1-2 1-17h-15l-33-1 6-8-2-1h9v-92l3-6 12-13 8-9v-17l6-8z" fill="#D1D3D6"/>
<path transform="translate(1372,123)" d="m0 0h10l5 2 5 6 6 14 11 28 13 31 6 15v6h-18l-5-11-8-19-6-16-5-13-5-12-2-4v-4h-2l-1 5-12 31-1 4h15l5 8 2 5-1 6-30 1-5 14-3 5h-18v-6l8-20 11-28 10-24 6-15 7-8z" fill="#FBFCFC"/>
<path transform="translate(686,122)" d="m0 0h8l6 4 5 6 28 70 7 18v5h-17l-6-12-9-23-5-12-5-13-5-11-2-5v-3h-2l-2 8-6 15-5 14-1 3h16l6 12v5l-3 2h-28l-3 10-5 10h-17l-1-1 1-8 6-15 5-12 6-14 6-16 9-22 6-11z" fill="#FBFCFC"/>
<path transform="translate(1201,123)" d="m0 0h18l4 8 11 28 8 19 6 17 2 3v3h2l1-6 8-19 7-17 6-16 7-18 2-2h18l-1 8-6 15-11 27-6 15-11 27-4 6-8 4-10-1-5-5-7-13-6-16-5-13-5-12-5-13-5-12-5-13z" fill="#FCFDFD"/>
<path transform="translate(1057,322)" d="m0 0h13l9 2 8 4 5 6 3 7 1 5 1 54h-12v-10h-2l-2 4-9 6-6 2h-13l-10-3-8-6-4-8v-11l4-9 7-6 13-5 7-1h22l-3-11-4-4-8-3h-11l-10 4-4 2h-4l-5-6 2-4 10-6z" fill="#D0D2D5"/>
<path transform="translate(815,324)" d="m0 0h14l6 23 4 13 6 18 1 2 4-10 15-45 14-1 4 10 4 13 9 26 3 7 3-9 9-29 5-18h14l-2 9-10 31-12 36h-13l-4-10-8-22-4-10-5-15-2-1-1 8-7 20-7 22-3 8h-13l-11-32-2-5-6-21-4-10z" fill="#D0D2D5"/>
<path transform="translate(1943,165)" d="m0 0h66l1 1v16l-1 1h-57l1 12 3 6v2h54l1 2v19l-1 1h-55l-6-2-7-4-5-8-3-9-1-7v-21l4-6z" fill="#F9FAFA"/>
<path transform="translate(1606,165)" d="m0 0h68l2 3v13l-3 2h-56l2 13 3 5v2l53 1 2 2v16l-1 3h-54l-9-3-7-5-4-7-3-13v-25l5-5z" fill="#F9FAFB"/>
<path transform="translate(935,165)" d="m0 0h68l1 1v14l-1 2-57 1v10l3 7 2 2 53 1 1 3v17l-1 2h-52l-10-2-6-4-5-8-3-9-1-4v-26l5-6z" fill="#FAFBFB"/>
<path transform="translate(227,144)" d="m0 0h20l18 4 18 8 13 9 9 8 10 13 8 15 4 12 3 15v18l-3 17-6 16-7 12-11 13-21 21-5-1v-6l3-7 23-23 8-14 5-13 3-13v-22l-4-17-9-17-10-13-14-11-16-8-9-3-11-2h-18l-13 2-16 6-14 9-10 9-5 6-4-2v-2h-4v-3l12-13 12-9 15-8 18-5z" fill="#D1D3D6"/>
<path transform="translate(1820,124)" d="m0 0h85l2 1v16l-1 1h-34v82l-1 1h-16l-1-1v-82h-34l-1-1v-16z" fill="#FBFCFC"/>
<path transform="translate(546,142)" d="m0 0h42l5 6 2 6v40l-3 8-5 4h-41z" fill="#5C6073"/>
<path transform="translate(945,278)" d="m0 0h12v56l10-8 11-4h9l10 3 10 9 4 10v56h-13l-1-53-4-7v-2l-9-3h-9l-8 4-6 8-3 11-1 42h-12z" fill="#E9EAEC"/>
<path transform="translate(1456,124)" d="m0 0h16l1 1 1 72 3 7 2 2 50 1v18h-48l-9-1-8-5-4-5-4-9-2-9v-71z" fill="#F8F9F9"/>
<path transform="translate(1032,124)" d="m0 0h17l1 73 2 5 3 4 49 1 1 1v16l-1 1h-49l-8-2-6-3-6-8-2-5-2-9-1-11v-61z" fill="#FBFCFC"/>
<path transform="translate(208,390)" d="m0 0h57l2 1v23l-3 6-4 3h-5v9l-6 9-8 5h-9l-7-3-4-5-3-6v-10h-7l-4-5-2-3v-22z" fill="#E9EAEC"/>
<path transform="translate(265,192)" d="m0 0h10l8 5 4 5 1 2v8l-3 8-4 4-5 2-14 1-8 8-8 10-4 4-1 91 8-1 1 3v5l2 2h-34l6-8-2-1h9v-92l3-6 12-13 8-9v-17l6-8z" fill="#E7E8EA"/>
<path transform="translate(725,322)" d="m0 0h14l11 4 5 4 3 4-1 4-7 5-4-2-5-4-4-2h-10l-8 5-1 1v5l1 3 5 2 27 9 7 6 3 9v8l-5 10-7 5-11 4h-16l-12-4-7-6-2-4 8-7 4 1 5 4 7 3h12l6-3 3-5-1-7-5-4-24-7-6-4-5-6-1-4v-8l3-7 5-6 10-5z" fill="#999A9E"/>
<path transform="translate(1126,303)" d="m0 0h13v21h22v11h-22l1 47 3 6 2 1h16l1 2v8l-7 3h-15l-7-3-3-3-3-6-1-6v-49h-17v-11h17z" fill="#B8B9BD"/>
<path transform="translate(1268,302)" d="m0 0h8l5 1v21h22v11h-23l1 15 1 34 1 5h16l4-1v11l-7 3h-15l-8-4-3-4-2-8-1-35v-16h-16v-10l1-1h16z" fill="#98999E"/>
<path transform="translate(1556,124)" d="m0 0h16l1 1v98l-1 2h-17v-100z" fill="#FBFCFD"/>
<path transform="translate(884,124)" d="m0 0h17v101h-17l-1-3v-97z" fill="#FAFBFB"/>
<path transform="translate(577,302)" d="m0 0h8l2 6v16h19l2 1v9l-9 1h-12l1 49 2 4 19 1v9l-2 2-4 1h-16l-8-4-3-6-1-5-1-29v-23l-13-1-1-6 6-2h8v-22z" fill="#6B6E7B"/>
<path transform="translate(815,324)" d="m0 0h14l6 23 4 13 6 18 1 2 4-10 5-15h2l3-11 1-3h2l2-6 5-6 5 1 2 4v7l-5 2-2-1-1 8-7 20-7 22-3 8h-13l-11-32-2-5-6-21-4-10z" fill="#B9BABE"/>
<path transform="translate(311,188)" d="m0 0h5l8 16 3 9 3 15v18l-3 17-6 16-7 12-11 13-21 21-5-1v-6l3-7 23-23 8-14 5-13 3-13v-22l-4-17-8-15 1-5z" fill="#9A9B9F"/>
<path transform="translate(928,123)" d="m0 0h76l1 3v14l-1 2h-76l-1-1v-17z" fill="#F6F7F8"/>
<path transform="translate(1935,124)" d="m0 0h75l1 1v16l-1 1h-75l-2-3v-11z" fill="#FBFCFD"/>
<path transform="translate(1600,124)" d="m0 0h75l2 3v13l-1 2h-75l-2-4v-11z" fill="#FAFBFB"/>
<path transform="translate(207,350)" d="m0 0h59v17l-1 2h-58z" fill="#5C6073"/>
<path transform="translate(163,181)" d="m0 0 1 2h2l3 4-2 5-6 10-6 17-1 7v24l4 16 8 16 1 3-4 8h-3l-8-14-4-10-4-13-1-9v-22l6-23 7-14 4-5z" fill="#999A9F"/>
<path transform="translate(1223,324)" d="m0 0h13v76h-13z" fill="#98999E"/>
<path transform="translate(671,324)" d="m0 0h13v76h-12l-1-1z" fill="#808189"/>
<path transform="translate(265,192)" d="m0 0h10l8 5 4 5 1 2v8l-3 8-4 4-5 2-16 1-3 2-5-7 2-2v-17l6-8z" fill="#D0D2D5"/>
<path transform="translate(179,221)" d="m0 0h10l6 4 2 14 1 12-1 3-6 1h-15l-6-4-4-6v-13l6-8z" fill="#B8B9BD"/>
<path transform="translate(1365,324)" d="m0 0 12 1v75h-12z" fill="#808189"/>
<path transform="translate(1062,364)" d="m0 0h21v12l-6 10-6 4-4 1h-13l-6-3-3-4v-10l5-6 7-3z" fill="#5D6174"/>
<path transform="translate(1029,217)" d="m0 0 5 2 4 4v5l5-1v1l23 2 30 2 3 1v3l-7 1v2l-16 4h-17l-5-1v-2l-6 2-1-3-8-3v-2l-6-2-3-3-3-7z" fill="#6A6D7A"/>
<path transform="translate(280,250)" d="m0 0h10l7 4 4 6 1 3v10l-4 6-4 4-7 2-7-1-3-3 3-7v-2l-2-4 1-5 2-3h-2z" fill="#B8B9BD"/>
<path transform="translate(241,249)" d="m0 0 3 1v34l2 6 4-1 1-2h2l2-5 4-4h2v-2h2l2-13 2-3 1 1 1 16-19 19-1 2-1 42h-7z" fill="#575B6C"/>
<path transform="translate(950,283)" d="m0 0 4 2 1 1 2-2v50l2 1h-2l1 3-3 13-2 20h-3l-1-17-1-45-1-21z" fill="#D3D5D8"/>
<path transform="translate(208,390)" d="m0 0h39v5l4 2 7 1v1h-43v14h9v1l-6 1v5h-4l-5-3-3-3h-1v-22z" fill="#D2D4D7"/>
<path transform="translate(215,399)" d="m0 0h42v14h-42z" fill="#5C6073"/>
<path transform="translate(278,251)" d="m0 0 4 1h-2l-1 8h2l-2 4 1 7 2 4h-2l-3 8-17 17-3-1-1-6-7 5 2-4 17-17v-13l3-7z" fill="#D0D1D5"/>
<path transform="translate(308,281)" d="m0 0 2 4v5h3l-2 4-7 9-22 22-5-1v-6l3-7 23-23z" fill="#B7B8BC"/>
<path transform="translate(278,154)" d="m0 0 10 5 10 8 7 6 10 13v2l-7 1v3l-3-1-8-11-12-10-12-7 2-7z" fill="#B8B9BD"/>
<path transform="translate(1377,146)" d="m0 0h2l4 10-2 4 1 2 2 17 1 4h-6l-2 2v1h-14l1-7 11-28z" fill="#6D707D"/>
<path transform="translate(247,390)" d="m0 0h18l2 1v23l-3 6-4 3h-5v9h-1l-1-8-5-1-1-5 5-2-1-3h6v-14l-7-2-3-2-1-4z" fill="#D1D3D6"/>
<path transform="translate(1410,327)" d="m0 0 5 1 1 2-4 7v10l2 4 5 5-3 9-11-4-5-6-1-3v-12l4-8 4-4z" fill="#6B6E7B"/>
<path transform="translate(124,123)" d="m0 0 5 1 10 9 8 7 3 3v2h2l5 6v5l-2 2-7-1-23-23-3-4 1-6z" fill="#999A9E"/>
<path transform="translate(233,78)" d="m0 0h6l2 1v42l-2 2-7-1-1-3v-39z" fill="#E4E5E7"/>
<path transform="translate(319,317)" d="m0 0 5 1 26 26 1 5-3 3-5-1-8-7-19-19v-5z" fill="#999A9F"/>
<path transform="translate(1040,362)" d="m0 0 1 3-2 8 8-3-1 4v10l2 4h2l-1 2-3-1-2 3 2 4 5 2 2 1 13 1v2h-13l-10-3-8-6-4-8v-11l3-7z" fill="#E6E7EA"/>
<path transform="translate(345,123)" d="m0 0 4 1 2 2-1 5-13 13-5 6h-2v2l-7 6h-5l-2-2v-5l16-17h2v-2l8-7z" fill="#999A9E"/>
<path transform="translate(195,153)" d="m0 0 4 2 2 5-5 3-5 5-11 8-9 9-1 2-4-2v-2h-4v-3l12-13 12-9z" fill="#B8B9BD"/>
<path transform="translate(166,285)" d="m0 0 27 27 2 4-1 5-1 2h-5l-7-8-15-15-5-6 1-2 2-2z" fill="#B7B8BC"/>
<path transform="translate(150,317)" d="m0 0 5 1 2 2-1 5-22 22-6 5-4-1-2-3 1-4 15-16 9-9z" fill="#999A9F"/>
<path transform="translate(200,239)" d="m0 0h1l1 8 10 9 6 7 3 3 2 4 1 37 3 7 2-1 1-9h1v36h-9l-1-68-6-9-16-16z" fill="#505466"/>
<path transform="translate(207,350)" d="m0 0h59v17l-1 2h-58v-2h57v-13h-19l-16 1h-19l-2 8h-1z" fill="#595D6D"/>
<path transform="translate(254,293)" d="m0 0h2l1 6h2l-1 3-1 38h-1l-2-7-5-5v6h-1v-36z" fill="#EAEBED"/>
<path transform="translate(259,194)" d="m0 0 2 1-6 8v17l-11 12-10 11-2 5-1 32h-1l-2-20v-9l-1-7 5-8h2v-2h2v-2l5-2 2-4 7-9v-11l2-5 2-4z" fill="#545869"/>
<path transform="translate(89,233)" d="m0 0h30l2 2v5l-2 2h-24l-15-2 4-1v-3h2v-2z" fill="#6B6E7B"/>
<path transform="translate(353,233)" d="m0 0h30l6 2 1 4-5 2-10 1h-22l-1-1v-7z" fill="#6B6E7B"/>
<path transform="translate(955,187)" d="m0 0 12 4 8 1-2 4-8 1-2 3 10 1 29 1v1h-51l-2-4 3-10z" fill="#727580"/>
<path transform="translate(219,370)" d="m0 0h33l-1 8 2 1h-35l2-3 1-5z" fill="#EBECEE"/>
<path transform="translate(209,390)" d="m0 0h38v5l4 2 7 1v1h-43l3-3 3-1 1-4h-13z" fill="#EAEBED"/>
<path transform="translate(1228,285)" d="m0 0 6 1 5 6v7l-4 4-9 1-5-5 1-10z" fill="#9B9CA0"/>
<path transform="translate(219,145)" d="m0 0h7l2 2-2 2-1 3-7 3h-3v2l-16 6-4 1 3-3 2-1-2-5-2-2 8-4z" fill="#D0D2D5"/>
<path transform="translate(677,285)" d="m0 0 6 2 3 3 1 7-5 6-7 1-6-5v-7l5-6z" fill="#81828A"/>
<path transform="translate(227,144)" d="m0 0h20l1 4v5l2 1-22 1-13 1 3-2 7-2 1-7z" fill="#E5E6E8"/>
<path transform="translate(147,272)" d="m0 0 3 1 9 17 12 14 17 17 6 10 1 3v7l-2-3-4-7v-3h-2l-3-4v-3h-2l-4-4v-2h-2l-7-9-5-5-9-10-6-10z" fill="#525668"/>
<path transform="translate(1157,8)" d="m0 0 10 4 8 2-2 5-3 3-4-1-2 1v-2h-3l-1 3-6-1-1-1-7-1-1-4 2-1 2 3 1-2h3v2l2-2-2-4z" fill="#6A6D7A"/>
<path transform="translate(1368,287)" d="m0 0h6l5 4v7l-5 5h-6l-5-5 1-7z" fill="#7E7F88"/>
<path transform="translate(1402,382)" d="m0 0 4 1 6 4 2 4 2 8h-7l-8-4-4-4 1-6z" fill="#6B6E7B"/>
<path transform="translate(227,423)" d="m0 0h18l-1 8-4 5h-8l-4-5z" fill="#5C6072"/>
<path transform="translate(784,146)" d="m0 0 4 4 3 5v13l1 5-7-2v52h-1z" fill="#7F818A"/>
<path transform="translate(185,157)" d="m0 0 2 1-10 8-7 6-7 8-7 10-4 7-4 10h-2l1-8 5-12 5-7 5-4 14-14z" fill="#535769"/>
<path transform="translate(180,231)" d="m0 0 7 1 3 4-1 6-3 3h-7l-4-4v-5z" fill="#535768"/>
<path transform="translate(215,399)" d="m0 0h42v14h-42zm3 2-2 7v4h38l2-3v-6l-1-2z" fill="#666978"/>
<path transform="translate(268,202)" d="m0 0 7 1 3 4v5l-6 5-5-1-3-3v-7z" fill="#585C6C"/>
<path transform="translate(283,260)" d="m0 0h6l3 4v7l-3 3h-7l-3-3-1-7z" fill="#5C6072"/>
<path transform="translate(353,233)" d="m0 0h14l3 3-1 5-2 1h-14l-1-1v-7z" fill="#808189"/>
<path transform="translate(928,379)" d="m0 0 4 5 1 4-3 5h-3v8l-4-1-3-10 5-10z" fill="#6A6D7A"/>
<path transform="translate(1e3 11)" d="m0 0 2 2 3-1 5 1 3-1v2l5-1-1 4h-6v2l-9 1-5-1-2 1-2-2-4-1v-3l8-1z" fill="#6A6D7A"/>
<path transform="translate(1057,200)" d="m0 0 5 1 7 2 8 1v2h26v1h-48l-3-5z" fill="#80828B"/>
<path transform="translate(284,203)" d="m0 0 4 1v8l-3 8-3 2-4-4 1-6v-5z" fill="#BABBBF"/>
<path transform="translate(143,320)" d="m0 0 3 1-16 16-4 5h-2l1-7 3-1 2-5 4-2v-2z" fill="#515567"/>
<path transform="translate(1373,161)" d="m0 0 2 3 1 2v6l-3 6-7 1-1 2 1-7 4-10z" fill="#626677"/>
<path transform="translate(886,415)" d="m0 0 2 1v2h2l-2 5-1 2 3-1 2 4 1 5-5 3-3-1v-3l-2-1 2-1-2-1-5 1 1-3h2l1-4 5-1v-2l-3-3z" fill="#6A6D7A"/>
<path transform="translate(149,318)" d="m0 0m-2 1 2 1-19 19v-3zm-19 20 6 1-2 5h-2v2l-4 3h-3l-1-5z" fill="#919297"/>
<path transform="translate(108,233)" d="m0 0h11l2 2v5l-2 2h-10z" fill="#808189"/>
<path transform="translate(946,278)" d="m0 0h11l-1 31h-1l-1-23-4-2-2 4h-2z" fill="#EAEBED"/>
<path transform="translate(861,409)" d="m0 0h2v2l4-1 1 4h-3l3 5-4 4h-6l-2-4 3-3-2-4 4-2z" fill="#6A6D7A"/>
<path transform="translate(191,255)" d="m0 0 4 2 16 16v4l-4-1-7-8-4-4v-2l-4-2z" fill="#575A6B"/>
<path transform="translate(282,169)" d="m0 0 4 1 11 9 8 10 4 7-1 2-8-11v-2l-4-1-1-3-5-2-5-6-3-2z" fill="#565A6B"/>
<path transform="translate(120,127)" d="m0 0 8 10 8 7 12 12-1 2-9-7-3-3v-2l-4-2-7-7-4-7z" fill="#55596A"/>
<path transform="translate(345,123)" d="m0 0 4 1 2 2-1 5-7 6-4-2 1-6 5-5z" fill="#81828A"/>
<path transform="translate(230,78)" d="m0 0h2l-1 42-2-3-1-4v-31z" fill="#505466"/>
<path transform="translate(1042,328)" d="m0 0 2 1 1 6 5 1v2l-6 3h-4l-5-6 2-4z" fill="#E5E6E8"/>
<path transform="translate(219,430)" d="m0 0 8 10 4 2 13 1-3 3h-9l-7-3-4-5-2-4z" fill="#F3F4F4"/>
<path transform="translate(124,123)" d="m0 0h2v2l3 1 2 6-2 6-5-5-2-3 1-6z" fill="#808189"/>
<path transform="translate(209,421)" d="m0 0 9 1 1 10 1 6-3-3-2-5-2-1-3-5-2-2z" fill="#5A5E6E"/>
<path transform="translate(200,239)" d="m0 0h1l1 8 10 9 6 7 3 3 2 6h-2l-6-9-16-16z" fill="#545869"/>
<path transform="translate(175,293)" d="m0 0 7 6 6 5v2l5 2 2 5 4 2 3 6-1 3-7-10-4-5-8-7-7-7z" fill="#55596A"/>
<path transform="translate(143,217)" d="m0 0h1l-1 37h-1l-1-6v-25z" fill="#53576A"/>
<path transform="translate(195,343)" d="m0 0h1l1 29-4-4-1-7 2-11z" fill="#525567"/>
<path transform="translate(1255,184)" d="m0 0h3l-3 9-3 8h-2l-1-8h3l1-7z" fill="#767883"/>
<path transform="translate(194,226)" d="m0 0 5 5 1 3v9l-1 4h-2l-2-18z" fill="#C6C7CB"/>
<path transform="translate(266,207)" d="m0 0h6l1 6-1 2-5 1-3-3 1-5z" fill="#5C6073"/>
<path transform="translate(217,266)" d="m0 0 4 4v39h-1l-1-19v-15l-2-6z" fill="#E9EAEC"/>
<path transform="translate(683,289)" d="m0 0 3 1 1 7-5 6-7 1-3-4h8l3-2z" fill="#95969B"/>
<path transform="translate(236,242)" d="m0 0h1l-1 8-2 4-1 18h-1v-27z" fill="#FDFEFE"/>
<path transform="translate(204,391)" d="m0 0h1l1 26-3-4-1-2v-12z" fill="#505466"/>
<path transform="translate(233,78)" d="m0 0h6l1 1v5l-6-1-1 15h-1v-19z" fill="#F5F6F7"/>
<path transform="translate(131,339)" d="m0 0 3 2-2 4h-2v2l-4 3h-3l1-4 5-6z" fill="#808189"/>
<path transform="translate(178,232)" d="m0 0 2 1 3 7-5 1-1 2-2-2v-5z" fill="#606374"/>
<path transform="translate(216,408)" d="m0 0 3 1v2h35v1h-38z" fill="#505466"/>
<path transform="translate(605,325)" d="m0 0h3v9h-6z" fill="#808189"/>
<path transform="translate(286,301)" d="m0 0 2 1-2 4-5 5-3-1 6-8z" fill="#565A6B"/>
<path transform="translate(279,265)" d="m0 0 3 1v3l4 1v3l2 1h-6l-3-3z" fill="#505466"/>
<path transform="translate(838,168)" d="m0 0h1v29l-2-3-1-8 1-4z" fill="#6B6E7B"/>
<path transform="translate(1302,388)" d="m0 0h1v6l-5-1-1-1-9-1v-1l11-1z" fill="#808189"/>
<path transform="translate(206,408)" d="m0 0h1l2 9 5 2 2 3h-5l-4-5-1-2z" fill="#E4E5E8"/>
<path transform="translate(185,157)" d="m0 0 2 1-10 8-5 3 2-4 7-6z" fill="#585B6C"/>
<path transform="translate(285,261)" d="m0 0h5l2 3v7h-2v-4l-3-2v-2h-2z" fill="#55596A"/>
<path transform="translate(951,379)" d="m0 0h1l1 11-2 2-2-4z" fill="#D3D5D8"/>
<path transform="translate(344,343)" d="m0 0 5 2v4l-3 1-3-2z" fill="#808189"/>
<path transform="translate(259,194)" d="m0 0 2 1-6 8-3-1 2-5z" fill="#535768"/>
<path transform="translate(872,431)" d="m0 0 5 1-1 4-4 1-4-4h4z" fill="#6A6D7A"/>
<path transform="translate(682,384)" d="m0 0h1v16l-4-2 2-6z" fill="#9B9CA0"/>
<path transform="translate(244,316)" d="m0 0h2l1 6-1 8-2-1z" fill="#5C6073"/>
</svg>
